<svg width="214" height="86" viewBox="0 0 214 86" fill="none" xmlns="http://www.w3.org/2000/svg">
<path d="M116.989 20.8642V29.2242C116.989 29.9442 116.842 30.5042 116.549 30.9042C116.282 31.2775 115.829 31.6242 115.189 31.9442C114.469 32.3708 113.429 32.7308 112.069 33.0242C110.735 33.3175 109.389 33.4642 108.029 33.4642C105.495 33.4642 103.202 33.0242 101.149 32.1442C99.1219 31.2375 97.5219 29.8508 96.3486 27.9842C95.1753 26.0908 94.5886 23.6642 94.5886 20.7042C94.5886 17.8775 95.1886 15.5175 96.3886 13.6242C97.5886 11.7042 99.1886 10.2642 101.189 9.30418C103.215 8.31751 105.469 7.82418 107.949 7.82418C109.575 7.82418 110.989 7.99751 112.189 8.34418C113.415 8.69085 114.349 9.17084 114.989 9.78418C115.655 10.3975 115.989 11.0775 115.989 11.8242C115.989 12.4108 115.829 12.9308 115.509 13.3842C115.215 13.8375 114.869 14.1842 114.469 14.4242C113.775 13.9975 112.922 13.5975 111.909 13.2242C110.922 12.8242 109.735 12.6242 108.349 12.6242C106.882 12.6242 105.562 12.9442 104.389 13.5842C103.215 14.2242 102.295 15.1442 101.629 16.3442C100.989 17.5442 100.669 18.9842 100.669 20.6642C100.669 22.4775 100.989 23.9842 101.629 25.1842C102.269 26.3575 103.149 27.2375 104.269 27.8242C105.415 28.3842 106.709 28.6642 108.149 28.6642C108.842 28.6642 109.469 28.5975 110.029 28.4642C110.589 28.3308 111.015 28.1975 111.309 28.0642V23.1842H106.509C106.375 22.9442 106.242 22.6242 106.109 22.2242C106.002 21.8242 105.949 21.3842 105.949 20.9042C105.949 20.1042 106.135 19.5175 106.509 19.1442C106.882 18.7708 107.375 18.5842 107.989 18.5842H114.709C115.429 18.5842 115.989 18.7842 116.389 19.1842C116.789 19.5842 116.989 20.1442 116.989 20.8642ZM127.397 18.6642V23.7442H121.637V18.0242C121.637 17.2775 121.81 16.6508 122.157 16.1442C122.53 15.6375 123.023 15.1842 123.637 14.7842C124.517 14.2508 125.57 13.8375 126.797 13.5442C128.023 13.2242 129.33 13.0642 130.717 13.0642C133.383 13.0642 134.717 13.9575 134.717 15.7442C134.717 16.1442 134.663 16.5308 134.557 16.9042C134.45 17.2508 134.303 17.5575 134.117 17.8242C133.85 17.7708 133.517 17.7308 133.117 17.7042C132.743 17.6508 132.33 17.6242 131.877 17.6242C131.05 17.6242 130.237 17.7175 129.437 17.9042C128.637 18.0908 127.957 18.3442 127.397 18.6642ZM121.637 22.2242L127.397 22.3442V32.7442C127.13 32.7975 126.757 32.8642 126.277 32.9442C125.823 33.0242 125.33 33.0642 124.797 33.0642C123.703 33.0642 122.903 32.8775 122.397 32.5042C121.89 32.1042 121.637 31.3975 121.637 30.3842V22.2242ZM137.57 8.10418C137.57 7.22418 137.863 6.47751 138.45 5.86418C139.063 5.25084 139.85 4.94418 140.81 4.94418C141.77 4.94418 142.543 5.25084 143.13 5.86418C143.743 6.47751 144.05 7.22418 144.05 8.10418C144.05 8.95751 143.743 9.69084 143.13 10.3042C142.543 10.9175 141.77 11.2242 140.81 11.2242C139.85 11.2242 139.063 10.9175 138.45 10.3042C137.863 9.69084 137.57 8.95751 137.57 8.10418ZM137.93 22.2242H143.69V32.7442C143.45 32.7975 143.09 32.8642 142.61 32.9442C142.156 33.0242 141.65 33.0642 141.09 33.0642C139.996 33.0642 139.196 32.8775 138.69 32.5042C138.183 32.1042 137.93 31.3975 137.93 30.3842V22.2242ZM143.69 25.2242H137.93V13.8642C138.17 13.7842 138.516 13.7042 138.97 13.6242C139.45 13.5442 139.97 13.5042 140.53 13.5042C141.65 13.5042 142.45 13.6908 142.93 14.0642C143.436 14.4375 143.69 15.1575 143.69 16.2242V25.2242ZM161.031 28.1442V16.0242L166.751 15.9842V28.8642C166.751 29.4775 166.617 29.9975 166.351 30.4242C166.084 30.8508 165.671 31.2508 165.111 31.6242C164.391 32.0775 163.444 32.4775 162.271 32.8242C161.124 33.1975 159.817 33.3842 158.351 33.3842C156.137 33.3842 154.231 33.0108 152.631 32.2642C151.031 31.5175 149.791 30.3975 148.911 28.9042C148.057 27.4108 147.631 25.5308 147.631 23.2642C147.631 20.9442 148.071 19.0375 148.951 17.5442C149.831 16.0242 151.017 14.9042 152.511 14.1842C154.031 13.4375 155.724 13.0642 157.591 13.0642C158.551 13.0642 159.404 13.1708 160.151 13.3842C160.924 13.5975 161.551 13.8508 162.031 14.1442V18.9042C161.631 18.5842 161.111 18.2908 160.471 18.0242C159.857 17.7308 159.151 17.5842 158.351 17.5842C157.391 17.5842 156.537 17.7842 155.791 18.1842C155.071 18.5842 154.497 19.2108 154.071 20.0642C153.671 20.8908 153.471 21.9708 153.471 23.3042C153.471 25.1975 153.897 26.5975 154.751 27.5042C155.631 28.3842 156.817 28.8242 158.311 28.8242C158.924 28.8242 159.457 28.7575 159.911 28.6242C160.364 28.4642 160.737 28.3042 161.031 28.1442ZM166.751 17.1442H160.991V6.74418C161.231 6.66418 161.591 6.59751 162.071 6.54418C162.551 6.46418 163.057 6.42418 163.591 6.42418C164.711 6.42418 165.511 6.61084 165.991 6.98418C166.497 7.35751 166.751 8.06418 166.751 9.10418V17.1442ZM95.8286 56.0242H101.749V72.7442C101.509 72.7975 101.122 72.8642 100.589 72.9442C100.082 73.0242 99.5619 73.0642 99.0286 73.0642C97.8553 73.0642 97.0286 72.8642 96.5486 72.4642C96.0686 72.0375 95.8286 71.3042 95.8286 70.2642V56.0242ZM101.749 63.3442H95.8286V48.5042C96.0953 48.4508 96.4953 48.3842 97.0286 48.3042C97.5619 48.1975 98.0819 48.1442 98.5886 48.1442C99.7086 48.1442 100.509 48.3442 100.989 48.7442C101.495 49.1175 101.749 49.8508 101.749 50.9442V63.3442ZM122.427 67.2242C122.427 69.1708 121.694 70.6908 120.227 71.7842C118.787 72.8775 116.681 73.4242 113.907 73.4242C111.721 73.4242 109.921 73.1042 108.507 72.4642C107.121 71.7975 106.427 70.8642 106.427 69.6642C106.427 69.1308 106.547 68.6642 106.787 68.2642C107.027 67.8375 107.334 67.5042 107.707 67.2642C108.454 67.7175 109.321 68.1308 110.307 68.5042C111.294 68.8508 112.427 69.0242 113.707 69.0242C115.734 69.0242 116.747 68.4375 116.747 67.2642C116.747 66.7842 116.561 66.3975 116.187 66.1042C115.841 65.8108 115.267 65.5842 114.467 65.4242L112.667 64.9842C110.561 64.5575 108.987 63.8775 107.947 62.9442C106.907 61.9842 106.387 60.6908 106.387 59.0642C106.387 57.2242 107.134 55.7575 108.627 54.6642C110.121 53.5708 112.134 53.0242 114.667 53.0242C115.974 53.0242 117.134 53.1575 118.147 53.4242C119.187 53.6642 120.014 54.0375 120.627 54.5442C121.241 55.0508 121.547 55.6775 121.547 56.4242C121.547 56.9308 121.441 57.3842 121.227 57.7842C121.014 58.1842 120.747 58.5042 120.427 58.7442C120.107 58.5575 119.654 58.3708 119.067 58.1842C118.481 57.9708 117.827 57.7975 117.107 57.6642C116.414 57.5042 115.761 57.4242 115.147 57.4242C114.161 57.4242 113.387 57.5575 112.827 57.8242C112.294 58.0908 112.027 58.5042 112.027 59.0642C112.027 59.4375 112.174 59.7575 112.467 60.0242C112.787 60.2642 113.347 60.4775 114.147 60.6642L115.827 61.0642C118.174 61.5975 119.854 62.3708 120.867 63.3842C121.907 64.3708 122.427 65.6508 122.427 67.2242ZM126.408 62.2242L132.128 62.3442V72.7442C131.888 72.7975 131.528 72.8642 131.048 72.9442C130.595 73.0242 130.101 73.0642 129.568 73.0642C128.475 73.0642 127.675 72.8775 127.168 72.5042C126.661 72.1042 126.408 71.3975 126.408 70.3842V62.2242ZM132.128 65.3442L126.408 65.2242V46.7442C126.648 46.6642 126.995 46.5975 127.448 46.5442C127.928 46.4642 128.435 46.4242 128.968 46.4242C130.088 46.4242 130.888 46.6108 131.368 46.9842C131.875 47.3575 132.128 48.0642 132.128 49.1042V65.3442ZM144.905 69.1042C145.545 69.1042 146.172 69.0375 146.785 68.9042C147.399 68.7708 147.839 68.6242 148.105 68.4642V64.5042L144.625 64.8242C143.692 64.9042 142.959 65.1175 142.425 65.4642C141.892 65.7842 141.625 66.2642 141.625 66.9042C141.625 67.5708 141.879 68.1042 142.385 68.5042C142.919 68.9042 143.759 69.1042 144.905 69.1042ZM144.665 53.0642C147.412 53.0642 149.599 53.6375 151.225 54.7842C152.852 55.9042 153.665 57.6775 153.665 60.1042V69.2242C153.665 69.8908 153.492 70.4242 153.145 70.8242C152.825 71.2242 152.412 71.5842 151.905 71.9042C151.105 72.3575 150.119 72.7175 148.945 72.9842C147.772 73.2508 146.425 73.3842 144.905 73.3842C142.185 73.3842 140.025 72.8642 138.425 71.8242C136.825 70.7575 136.025 69.1842 136.025 67.1042C136.025 65.2908 136.585 63.9042 137.705 62.9442C138.852 61.9842 140.519 61.3842 142.705 61.1442L148.065 60.5842V60.0642C148.065 59.1308 147.705 58.4642 146.985 58.0642C146.292 57.6375 145.292 57.4242 143.985 57.4242C142.972 57.4242 141.972 57.5442 140.985 57.7842C139.999 58.0242 139.119 58.3175 138.345 58.6642C138.052 58.4508 137.785 58.1308 137.545 57.7042C137.332 57.2775 137.225 56.8375 137.225 56.3842C137.225 55.2642 137.825 54.4642 139.025 53.9842C139.772 53.6642 140.652 53.4375 141.665 53.3042C142.705 53.1442 143.705 53.0642 144.665 53.0642ZM176.555 60.3442V64.1442H170.795V60.5442C170.795 59.5308 170.502 58.7842 169.915 58.3042C169.329 57.8242 168.542 57.5842 167.555 57.5842C166.862 57.5842 166.222 57.6775 165.635 57.8642C165.075 58.0242 164.569 58.2242 164.115 58.4642V64.1442H158.355V57.8642C158.355 57.1975 158.489 56.6508 158.755 56.2242C159.049 55.7975 159.462 55.3975 159.995 55.0242C160.849 54.4642 161.929 53.9975 163.235 53.6242C164.569 53.2508 166.022 53.0642 167.595 53.0642C170.449 53.0642 172.649 53.6908 174.195 54.9442C175.769 56.1975 176.555 57.9975 176.555 60.3442ZM158.355 62.3042H164.115V72.7442C163.849 72.7975 163.475 72.8642 162.995 72.9442C162.542 73.0242 162.049 73.0642 161.515 73.0642C160.422 73.0642 159.622 72.8775 159.115 72.5042C158.609 72.1042 158.355 71.3975 158.355 70.3842V62.3042ZM170.795 62.3042H176.555V72.7442C176.315 72.7975 175.955 72.8642 175.475 72.9442C175.022 73.0242 174.515 73.0642 173.955 73.0642C172.862 73.0642 172.062 72.8775 171.555 72.5042C171.049 72.1042 170.795 71.3975 170.795 70.3842V62.3042ZM193.765 68.1442V56.0242L199.485 55.9842V68.8642C199.485 69.4775 199.352 69.9975 199.085 70.4242C198.819 70.8508 198.405 71.2508 197.845 71.6242C197.125 72.0775 196.179 72.4775 195.005 72.8242C193.859 73.1975 192.552 73.3842 191.085 73.3842C188.872 73.3842 186.965 73.0108 185.365 72.2642C183.765 71.5175 182.525 70.3975 181.645 68.9042C180.792 67.4108 180.365 65.5308 180.365 63.2642C180.365 60.9442 180.805 59.0375 181.685 57.5442C182.565 56.0242 183.752 54.9042 185.245 54.1842C186.765 53.4375 188.459 53.0642 190.325 53.0642C191.285 53.0642 192.139 53.1708 192.885 53.3842C193.659 53.5975 194.285 53.8508 194.765 54.1442V58.9042C194.365 58.5842 193.845 58.2908 193.205 58.0242C192.592 57.7308 191.885 57.5842 191.085 57.5842C190.125 57.5842 189.272 57.7842 188.525 58.1842C187.805 58.5842 187.232 59.2108 186.805 60.0642C186.405 60.8908 186.205 61.9708 186.205 63.3042C186.205 65.1975 186.632 66.5975 187.485 67.5042C188.365 68.3842 189.552 68.8242 191.045 68.8242C191.659 68.8242 192.192 68.7575 192.645 68.6242C193.099 68.4642 193.472 68.3042 193.765 68.1442ZM199.485 57.1442H193.725V46.7442C193.965 46.6642 194.325 46.5975 194.805 46.5442C195.285 46.4642 195.792 46.4242 196.325 46.4242C197.445 46.4242 198.245 46.6108 198.725 46.9842C199.232 47.3575 199.485 48.0642 199.485 49.1042V57.1442Z" fill="black"/>
<rect x="9.00061" y="9" width="72.1869" height="68.1475" rx="7" fill="black"/>
<path d="M46.6247 85.2792C44.6397 85.2792 42.6802 84.7571 40.9611 83.7722L9.17499 65.5427C6.22191 63.8497 4.38793 60.692 4.38793 57.3061V49.7501C4.07305 48.9997 3.90922 48.186 3.90922 47.3596C3.90922 45.3137 4.08794 43.3206 4.44538 41.3909C4.34751 41.3972 4.24751 41.4015 4.14751 41.4015C3.9071 41.4015 3.66455 41.3803 3.42839 41.3402C2.33481 41.1478 1.38591 40.5476 0.749764 39.6472C0.115744 38.7468 -0.128928 37.6541 0.0646824 36.5698C0.551899 33.8243 2.03482 31.6515 4.239 30.451C5.55385 29.7345 7.07507 29.3731 8.76437 29.3731C9.02606 29.3731 9.29414 29.3816 9.56647 29.4006C12.4919 25.3362 16.0769 22.4491 18.9959 20.5511C18.9895 20.1432 18.9917 19.7373 19.0023 19.3337C19.0619 16.6346 19.4746 14.1808 20.2703 11.8453C20.7533 10.4355 21.3746 9.11242 22.1192 7.9098C22.9405 6.5867 23.9213 5.38197 25.0361 4.32941L25.2872 4.10326C25.4787 3.93206 25.6808 3.75029 25.8978 3.57064L25.9659 3.51357L26.0318 3.46285C26.2722 3.27685 26.5084 3.09508 26.7467 2.91332L26.8552 2.83089L26.9722 2.75269C27.2233 2.5836 27.4786 2.41663 27.7339 2.24966L27.9594 2.10382L28.8275 1.6177C30.1381 0.915992 31.921 0.100154 34.1039 0.0134975C34.2741 0.00715683 34.4464 0.00292969 34.6188 0.00292969C39.725 0.00292969 41.4908 3.32758 42.0121 4.75635C42.1823 5.22134 42.3036 5.69689 42.378 6.18301C44.4397 4.31673 46.8885 2.88795 49.565 2.00237C50.9373 1.55006 52.8096 1.02801 55.1244 1.02801C55.2435 1.02801 55.3648 1.03013 55.4861 1.03224C59.6519 1.13158 62.7518 3.94051 63.0241 7.86119C63.0645 8.43185 63.0348 9.00886 62.9326 9.62179C62.6369 11.4183 61.654 13.0648 60.0476 14.483C63.0433 15.2545 65.9453 16.2711 68.6622 17.5054C70.1175 17.5921 71.5153 17.9239 72.8216 18.4988C74.2854 19.1413 75.6024 20.0671 76.7385 21.2528C77.5002 22.0475 78.1704 22.95 78.7363 23.9412C85.6786 30.0896 89.3466 38.1761 89.3466 47.3575C89.3466 48.186 89.1827 48.9997 88.8679 49.7479V57.304C88.8679 60.692 87.0339 63.8476 84.0808 65.5406L52.2947 83.7701C50.5692 84.7593 48.6097 85.2792 46.6247 85.2792Z" fill="white"/>
<path d="M46.6246 82.7442C45.0863 82.7442 43.5693 82.3405 42.2375 81.5754L10.4514 63.3459C8.2855 62.1031 6.94086 59.7887 6.94086 57.3053V49.168C6.63024 48.6333 6.46216 48.014 6.46216 47.3588C6.46216 33.3057 15.498 25.5489 21.6042 21.9156C21.5489 21.0765 21.5318 20.229 21.5531 19.3941C21.6063 16.9509 21.9765 14.7422 22.6871 12.654C23.1062 11.4281 23.6466 10.2783 24.2913 9.23632C24.9955 8.09921 25.8359 7.06568 26.7912 6.1653L26.9976 5.9793C27.1742 5.82078 27.3508 5.66227 27.5337 5.51009L27.5678 5.48261L27.6018 5.45514C27.8295 5.27971 28.0571 5.10217 28.2869 4.92886L28.3422 4.88659L28.3997 4.84854C28.6401 4.6858 28.8826 4.52728 29.1273 4.36876L29.2826 4.26731L30.0315 3.84671C31.0996 3.27393 32.5378 2.61027 34.1973 2.54263C34.3356 2.53629 34.4739 2.53418 34.6101 2.53418C37.9759 2.53418 39.1844 4.46598 39.6035 5.61788C40.1546 7.12486 39.9376 8.89392 38.961 10.8764C37.9866 12.8569 36.1015 15.1966 33.8442 16.9509C35.6015 16.5007 37.393 16.135 39.1865 15.8645C39.8056 13.6262 41.0311 11.3753 42.697 9.47092C44.7374 7.14177 47.3884 5.38962 50.3627 4.40892C51.552 4.01579 53.1669 3.5656 55.1179 3.5656C55.2157 3.5656 55.3157 3.56772 55.4157 3.56983C58.2582 3.63746 60.29 5.434 60.4709 8.03792C60.4964 8.41202 60.4751 8.79669 60.407 9.21518C60.0092 11.6268 57.7263 13.2817 55.8795 14.2455C54.7264 14.8479 53.4796 15.3171 52.2648 15.6172C58.7539 16.3612 65.2047 18.3437 70.5811 21.3069C76.6341 24.6421 86.7869 32.4624 86.7869 47.3588C86.7869 48.014 86.6167 48.6354 86.3082 49.168V57.3053C86.3082 59.7887 84.9636 62.1052 82.7977 63.3459L51.0138 81.5754C49.6798 82.3405 48.1628 82.7442 46.6246 82.7442Z" fill="#282E36"/>
<path d="M69.3428 23.5238C62.3451 19.6665 53.8646 17.8256 46.6244 17.8256C46.4989 17.8256 46.3691 17.8298 46.2436 17.8319C46.5032 16.8724 47.0819 15.5556 48.2265 14.2473C48.452 13.9895 48.7137 13.721 49.0094 13.4505C52.1646 13.6555 57.49 11.208 57.8878 8.80275C57.9198 8.61042 57.9389 8.41385 57.924 8.21095C57.8325 6.90476 56.8645 6.13965 55.356 6.10372C53.7816 6.06568 52.4093 6.40596 51.1689 6.81599C48.0648 7.84108 45.9585 9.61436 44.6245 11.1361C42.4863 13.5773 41.5459 16.2172 41.3374 18.1384C37.195 18.6118 32.8802 19.6369 28.8166 21.2348C28.7761 20.6683 28.7549 20.1019 28.7612 19.5418C28.7719 18.7408 28.8357 17.9482 28.9527 17.1788C28.974 17.0393 28.9995 16.902 29.0251 16.7646C33.2249 15.4161 38.2524 9.35228 37.2056 6.48628C36.7567 5.25406 35.5631 5.03003 34.3015 5.08075C33.2419 5.12302 32.2122 5.56476 31.2441 6.08258L30.8846 6.28337L30.7059 6.38482L30.6165 6.43555L30.5293 6.49262C30.2974 6.64268 30.0655 6.79486 29.8378 6.94915C29.6165 7.11612 29.3953 7.28521 29.1761 7.4564C28.9634 7.63394 28.757 7.82205 28.5506 8.00805C27.7421 8.77105 27.04 9.64184 26.4677 10.5676C25.8933 11.4933 25.4465 12.474 25.1082 13.4674C24.4316 15.4563 24.1508 17.479 24.1082 19.4594C24.0827 20.4506 24.1167 21.4356 24.2061 22.4141C24.2337 22.7164 24.2657 23.0186 24.304 23.3188C24.1742 23.3885 24.0401 23.454 23.9104 23.5259C16.234 27.7573 9.01941 35.4507 9.01941 47.3606C9.01941 47.722 9.18749 48.0602 9.49812 48.2441V57.3092C9.49812 58.8944 10.3491 60.3612 11.7321 61.1538L43.516 79.3833C44.4777 79.935 45.5521 80.2119 46.6266 80.2119C47.701 80.2119 48.7754 79.935 49.7371 79.3833L81.521 61.1538C82.904 60.3612 83.755 58.8944 83.755 57.3092V48.2441C84.0677 48.0623 84.2337 47.722 84.2337 47.3606C84.2337 35.4485 77.0191 27.753 69.3428 23.5238Z" fill="#282E36"/>
<mask id="mask0_2711_10578" style="mask-type:luminance" maskUnits="userSpaceOnUse" x="9" y="44" width="75" height="37">
<path d="M46.6246 65.5756L9.49402 44.2793V57.3052C9.49402 58.8904 10.3451 60.3572 11.728 61.1498L43.5119 79.3794C45.4374 80.4827 47.8097 80.4827 49.7351 79.3794L81.5191 61.1498C82.902 60.3572 83.753 58.8904 83.753 57.3052V44.2793L46.6246 65.5756Z" fill="white"/>
</mask>
<g mask="url(#mask0_2711_10578)">
<path d="M46.6246 65.5756V81.1654L83.7552 59.869V44.2793L46.6246 65.5756Z" fill="white"/>
</g>
<mask id="mask1_2711_10578" style="mask-type:luminance" maskUnits="userSpaceOnUse" x="9" y="44" width="75" height="37">
<path d="M46.6246 65.5756L9.49402 44.2793V57.3052C9.49402 58.8904 10.3451 60.3572 11.728 61.1498L43.5119 79.3794C45.4374 80.4827 47.8097 80.4827 49.7351 79.3794L81.5191 61.1498C82.902 60.3572 83.753 58.8904 83.753 57.3052V44.2793L46.6246 65.5756Z" fill="white"/>
</mask>
<g mask="url(#mask1_2711_10578)">
<path d="M9.49402 44.2793V59.869L46.6246 81.1654V65.5756L9.49402 44.2793Z" fill="white"/>
</g>
<path d="M69.3429 23.5244C62.3452 19.6671 53.8647 17.8262 46.6245 17.8262C39.3844 17.8262 30.9038 19.6692 23.9062 23.5244C16.2299 27.7557 9.01526 35.4491 9.01526 47.3591C9.01526 47.7226 9.18547 48.065 9.50248 48.2468L44.1268 68.1059C44.8991 68.5498 45.7629 68.7717 46.6245 68.7717C47.4862 68.7717 48.35 68.5498 49.1223 68.1059L83.7466 48.2468C84.0636 48.065 84.2338 47.7226 84.2338 47.3591C84.2338 35.4491 77.0192 27.7536 69.3429 23.5244Z" fill="white"/>
<path d="M80.9 50.0197C80.9 54.8936 74.2236 58.6283 68.3919 58.6283C62.5602 58.6283 53.6562 57.4785 53.6562 52.6046C53.6562 47.7307 63.1453 39.5977 68.977 39.5977C74.8087 39.5977 80.9 45.1458 80.9 50.0197Z" fill="white"/>
<path d="M67.3983 60.1015C66.8132 61.843 62.3729 63.3183 58.9135 61.5345C55.6306 59.8394 48.7883 51.8015 51.0414 48.8784C52.9286 46.4309 56.6263 45.0486 62.5644 46.8261C67.7536 48.3775 68.5706 56.6098 67.3983 60.1015Z" fill="white"/>
<path d="M29.0252 16.7626C33.225 15.4142 38.2525 9.35033 37.2057 6.48432C36.7568 5.25211 35.5633 5.02807 34.3016 5.0788C33.2421 5.12107 32.2123 5.56281 31.2443 6.08063L30.8847 6.28142L30.706 6.38287L30.6166 6.4336L30.5294 6.49066C30.2975 6.64073 30.0656 6.7929 29.8379 6.94719C29.6167 7.11417 29.3954 7.28325 29.1762 7.45445C28.9635 7.63199 28.7571 7.8201 28.5507 8.00609C27.7423 8.76909 27.0402 9.63988 26.4678 10.5656C25.8934 11.4935 25.4466 12.4721 25.1083 13.4654C24.4317 15.4543 24.1509 17.477 24.1083 19.4574C24.0828 20.4487 24.1169 21.4336 24.2062 22.4122C24.2934 23.3908 24.4317 24.363 24.6232 25.3416C24.6275 25.367 24.636 25.4029 24.6424 25.4283C24.9424 26.7049 26.2253 27.4974 27.5082 27.1994C28.7933 26.9014 29.5911 25.6269 29.2911 24.3525L29.289 24.3461C29.106 23.5704 28.9741 22.7652 28.8826 21.9599C28.7954 21.1525 28.755 20.343 28.7635 19.542C28.7741 18.7409 28.838 17.9483 28.955 17.179C28.9741 17.0374 28.9997 16.9 29.0252 16.7626Z" fill="white"/>
<path d="M57.9241 8.21073C57.8326 6.90454 56.8646 6.13943 55.3561 6.1035C53.7817 6.06545 52.4094 6.40574 51.169 6.81577C48.0649 7.84085 45.9586 9.61414 44.6246 11.1359C42.1651 13.9448 41.2906 17.0138 41.2906 18.9519C41.2906 20.2623 42.3587 21.3233 43.6778 21.3233C44.9969 21.3233 46.0649 20.2623 46.0649 18.9519C46.0649 18.1783 46.516 16.2021 48.2287 14.2471C48.4542 13.9892 48.7159 13.7208 49.0116 13.4503C52.1669 13.6553 57.4922 11.2078 57.89 8.80253C57.9198 8.61019 57.939 8.41363 57.9241 8.21073Z" fill="white"/>
<path d="M68.079 41.1765C63.7175 41.1765 60.3346 37.9026 59.4623 32.8363C59.0134 30.2303 59.3623 27.7257 60.4431 25.7791C61.6643 23.581 63.6983 22.1818 66.3259 21.7359C66.8556 21.645 67.3833 21.6006 67.896 21.6006C72.2576 21.6006 75.6404 24.8745 76.5127 29.9407C76.9617 32.5468 76.6127 35.0514 75.5319 36.998C74.3107 39.1961 72.2767 40.5953 69.6492 41.0412C69.1194 41.13 68.5918 41.1765 68.079 41.1765Z" fill="white"/>
<path d="M67.896 23.1795C71.6852 23.1795 74.2511 26.1808 74.9425 30.205C75.7127 34.6752 73.8809 38.7163 69.3811 39.4815C68.9321 39.5575 68.4981 39.5935 68.079 39.5935C64.2897 39.5935 61.7239 36.5922 61.0324 32.568C60.2622 28.0978 62.0941 24.0566 66.5939 23.2915C67.0407 23.2175 67.4769 23.1795 67.896 23.1795ZM67.896 20.0176C67.2939 20.0176 66.6748 20.0704 66.0578 20.1761C62.9813 20.6981 60.492 22.4165 59.0495 25.0141C58.3985 26.185 57.9751 27.5038 57.7879 28.9326C57.6134 30.2684 57.6496 31.6718 57.8942 33.1027C58.3517 35.7637 59.458 38.0696 61.0899 39.7731C61.992 40.7158 63.0366 41.4492 64.1898 41.9564C65.4003 42.4891 66.7088 42.7575 68.079 42.7575C68.6811 42.7575 69.3002 42.7047 69.9172 42.599C72.9937 42.0769 75.483 40.3586 76.9255 37.761C77.5765 36.5901 77.9999 35.2712 78.1871 33.8424C78.3616 32.5067 78.3254 31.1033 78.0807 29.6724C77.6233 27.0114 76.517 24.7055 74.8851 23.0019C73.983 22.0593 72.9384 21.3259 71.7852 20.8186C70.5725 20.2881 69.264 20.0176 67.896 20.0176Z" fill="#282E36"/>
<path d="M4.14729 38.8642C4.0558 38.8642 3.96219 38.8558 3.86858 38.8389C3.00265 38.6867 2.42608 37.8666 2.57714 37.0085C3.02606 34.4807 4.39622 33.2548 5.46426 32.6736C6.84294 31.9233 8.5833 31.7225 10.6364 32.0775C11.6215 32.2487 12.4449 32.5129 12.8768 32.6651L41.2098 32.4939C41.214 32.4939 41.2162 32.4939 41.2204 32.4939C42.0948 32.4939 42.8055 33.1956 42.8118 34.0643C42.8161 34.9372 42.1097 35.6495 41.231 35.6537L12.6044 35.827C12.3917 35.827 12.181 35.7869 11.9853 35.7066C11.1151 35.3536 8.51309 34.6138 6.994 35.4466C6.31955 35.8165 5.90255 36.5055 5.71532 37.5559C5.57703 38.3253 4.90471 38.8642 4.14729 38.8642Z" fill="#282E36"/>
<path d="M49.2244 46.3274C44.3799 46.3274 40.6226 42.6793 39.6503 37.0319C39.1482 34.1215 39.5354 31.3231 40.7396 29.1546C42.0928 26.7155 44.3501 25.1663 47.2692 24.6696C47.8585 24.5703 48.4457 24.5195 49.0159 24.5195C53.8604 24.5195 57.6178 28.1676 58.5901 33.815C59.0922 36.7254 58.705 39.5238 57.5007 41.6923C56.1476 44.1314 53.8902 45.6806 50.9712 46.1773C50.3818 46.2766 49.7946 46.3274 49.2244 46.3274Z" fill="white"/>
<path d="M49.018 26.1023C53.3221 26.1023 56.2348 29.5115 57.022 34.0832C57.8965 39.1621 55.8157 43.7507 50.7031 44.6193C50.1946 44.706 49.701 44.7483 49.2244 44.7483C44.9203 44.7483 42.0077 41.3391 41.2205 36.7674C40.346 31.6885 42.4268 27.0999 47.5394 26.2313C48.0479 26.1425 48.5415 26.1023 49.018 26.1023ZM49.018 22.9404C48.3585 22.9404 47.6798 22.9996 47.0011 23.1137C45.2905 23.4054 43.7523 24.0205 42.4353 24.9462C41.1587 25.8424 40.1205 27.0006 39.3482 28.3934C38.6354 29.6764 38.1695 31.1221 37.9652 32.6924C37.7716 34.1656 37.8121 35.717 38.0844 37.3C38.5908 40.2379 39.8056 42.7805 41.6013 44.6531C42.5885 45.6825 43.7267 46.4835 44.9841 47.0373C46.3054 47.6164 47.733 47.9102 49.2265 47.9102C49.8861 47.9102 50.5648 47.851 51.2414 47.7368C52.9519 47.4452 54.4902 46.8301 55.8072 45.9044C57.0837 45.0082 58.122 43.85 58.8943 42.4571C59.607 41.1742 60.073 39.7285 60.2772 38.1581C60.4708 36.685 60.4304 35.1336 60.1581 33.5506C59.6517 30.6127 58.4369 28.0701 56.6433 26.1996C55.6561 25.1702 54.5178 24.3692 53.2604 23.8154C51.9392 23.2342 50.5116 22.9404 49.018 22.9404Z" fill="#282E36"/>
<path d="M53.2941 40.407C55.9233 39.9603 57.6277 37.118 57.1009 34.0585C56.5741 30.9991 54.0157 28.8811 51.3865 29.3278C48.7573 29.7746 47.053 32.6169 47.5798 35.6763C48.1066 38.7358 50.665 40.8538 53.2941 40.407Z" fill="#282E36"/>
<path d="M71.2211 35.2614C73.5063 35.0519 75.1557 32.6959 74.9052 29.9992C74.6547 27.3025 72.5991 25.2861 70.3139 25.4957C68.0287 25.7052 66.3792 28.0611 66.6298 30.7579C66.8803 33.4546 68.9359 35.4709 71.2211 35.2614Z" fill="#282E36"/>
<path d="M63.809 48.4493C63.4516 48.4493 63.0942 48.3309 62.7963 48.0879L61.7623 47.2403C61.0857 46.6845 60.99 45.689 61.5495 45.0147C62.1091 44.3426 63.1112 44.2475 63.7899 44.8034L64.8239 45.6509C65.5005 46.2068 65.5962 47.2023 65.0367 47.8765C64.7218 48.2527 64.2665 48.4493 63.809 48.4493Z" fill="#282E36"/>
<path d="M48.5521 56.7727C48.2393 56.7727 47.9223 56.6818 47.6457 56.4895C46.9245 55.9907 46.7457 55.0058 47.2479 54.2893L49.7456 50.7195C50.2477 50.003 51.2392 49.8254 51.9605 50.3242C52.6817 50.823 52.8604 51.8079 52.3583 52.5244L49.8605 56.0943C49.5499 56.536 49.0542 56.7727 48.5521 56.7727Z" fill="#282E36"/>
<path d="M67.4684 60.8331C66.5302 60.8331 65.577 60.7782 64.6154 60.6683C57.0539 59.7975 51.535 56.42 49.1095 53.7886C48.5159 53.1461 48.5585 52.1442 49.2074 51.5546C49.8542 50.9649 50.8605 51.0071 51.4563 51.6518C53.6753 54.057 58.7198 56.8068 64.9834 57.5275C67.8791 57.8614 70.7811 57.5994 73.1576 56.7899C75.5937 55.9613 77.4128 54.596 78.417 52.8417C79.5638 50.8402 79.417 49.0711 79.0914 47.9403C78.7127 46.6236 77.8638 45.4252 76.8745 44.8101C76.1298 44.3473 75.9022 43.3729 76.3681 42.631C76.8341 41.8913 77.8149 41.6651 78.5617 42.128C80.2169 43.1552 81.5573 45.0025 82.153 47.0717C82.6445 48.7858 82.8764 51.4489 81.1828 54.4058C79.7872 56.8406 77.3702 58.6984 74.1895 59.7806C72.1364 60.4781 69.8535 60.8331 67.4684 60.8331Z" fill="#282E36"/>
</svg>
