<svg width="90" height="86" viewBox="0 0 90 86" fill="none" xmlns="http://www.w3.org/2000/svg">
<rect x="9.00049" y="8.99695" width="72.1869" height="68.1475" rx="7" fill="black"/>
<path d="M46.6247 85.2763C44.6397 85.2763 42.6802 84.7542 40.9611 83.7693L9.17499 65.5397C6.22191 63.8468 4.38793 60.6891 4.38793 57.3032V49.7471C4.07305 48.9968 3.90922 48.1831 3.90922 47.3567C3.90922 45.3107 4.08794 43.3176 4.44538 41.388C4.34751 41.3943 4.24751 41.3985 4.14751 41.3985C3.9071 41.3985 3.66455 41.3774 3.42839 41.3372C2.33481 41.1449 1.38591 40.5446 0.749764 39.6443C0.115744 38.7439 -0.128928 37.6512 0.0646824 36.5669C0.551899 33.8214 2.03482 31.6486 4.239 30.4481C5.55385 29.7316 7.07507 29.3702 8.76437 29.3702C9.02606 29.3702 9.29414 29.3786 9.56647 29.3977C12.4919 25.3333 16.0769 22.4461 18.9959 20.5481C18.9895 20.1402 18.9917 19.7344 19.0023 19.3307C19.0619 16.6317 19.4746 14.1778 20.2703 11.8423C20.7533 10.4326 21.3746 9.10949 22.1192 7.90687C22.9405 6.58377 23.9213 5.37904 25.0361 4.32648L25.2872 4.10033C25.4787 3.92913 25.6808 3.74736 25.8978 3.56771L25.9659 3.51064L26.0318 3.45992C26.2722 3.27392 26.5084 3.09215 26.7467 2.91039L26.8552 2.82796L26.9722 2.74976C27.2233 2.58067 27.4786 2.4137 27.7339 2.24673L27.9594 2.10089L28.8275 1.61477C30.1381 0.913063 31.921 0.0972243 34.1039 0.0105679C34.2741 0.00422714 34.4464 0 34.6188 0C39.725 0 41.4908 3.32465 42.0121 4.75342C42.1823 5.21841 42.3036 5.69396 42.378 6.18008C44.4397 4.3138 46.8885 2.88502 49.565 1.99944C50.9373 1.54713 52.8096 1.02508 55.1244 1.02508C55.2435 1.02508 55.3648 1.0272 55.4861 1.02931C59.6519 1.12865 62.7518 3.93758 63.0241 7.85826C63.0645 8.42892 63.0348 9.00593 62.9326 9.61886C62.6369 11.4154 61.654 13.0619 60.0476 14.4801C63.0433 15.2515 65.9453 16.2682 68.6622 17.5025C70.1175 17.5891 71.5153 17.921 72.8216 18.4959C74.2854 19.1384 75.6024 20.0641 76.7385 21.2498C77.5002 22.0445 78.1704 22.947 78.7363 23.9383C85.6786 30.0867 89.3466 38.1732 89.3466 47.3546C89.3466 48.1831 89.1827 48.9968 88.8679 49.745V57.301C88.8679 60.6891 87.0339 63.8447 84.0808 65.5376L52.2947 83.7672C50.5692 84.7563 48.6097 85.2763 46.6247 85.2763Z" fill="white"/>
<path d="M46.6248 82.7412C45.0866 82.7412 43.5696 82.3375 42.2377 81.5724L10.4516 63.3428C8.28574 62.1 6.94111 59.7857 6.94111 57.3022V49.165C6.63048 48.6302 6.4624 48.011 6.4624 47.3558C6.4624 33.3026 15.4982 25.5458 21.6044 21.9126C21.5491 21.0735 21.5321 20.226 21.5534 19.3911C21.6065 16.9478 21.9767 14.7391 22.6874 12.6509C23.1065 11.425 23.6469 10.2753 24.2916 9.23326C24.9958 8.09616 25.8362 7.06263 26.7915 6.16224L26.9978 5.97625C27.1744 5.81773 27.351 5.65921 27.534 5.50704L27.568 5.47956L27.6021 5.45208C27.8297 5.27666 28.0574 5.09912 28.2872 4.9258L28.3425 4.88353L28.3999 4.84549C28.6403 4.68274 28.8829 4.52423 29.1275 4.36571L29.2829 4.26426L30.0318 3.84366C31.0998 3.27088 32.5381 2.60722 34.1976 2.53958C34.3359 2.53324 34.4742 2.53113 34.6103 2.53113C37.9762 2.53113 39.1846 4.46293 39.6038 5.61483C40.1548 7.12181 39.9378 8.89087 38.9612 10.8734C37.9868 12.8538 36.1018 15.1935 33.8444 16.9478C35.6018 16.4976 37.3932 16.132 39.1868 15.8614C39.8059 13.6232 41.0314 11.3722 42.6973 9.46787C44.7376 7.13871 47.3886 5.38656 50.363 4.40587C51.5523 4.01274 53.1671 3.56255 55.1181 3.56255C55.216 3.56255 55.316 3.56466 55.416 3.56678C58.2584 3.63441 60.2903 5.43095 60.4711 8.03487C60.4966 8.40897 60.4754 8.79364 60.4073 9.21213C60.0094 11.6237 57.7265 13.2786 55.8798 14.2424C54.7266 14.8448 53.4799 15.314 52.265 15.6141C58.7541 16.3581 65.205 18.3406 70.5814 21.3039C76.6344 24.6391 86.7872 32.4593 86.7872 47.3558C86.7872 48.011 86.617 48.6324 86.3085 49.165V57.3022C86.3085 59.7857 84.9639 62.1022 82.798 63.3428L51.014 81.5724C49.68 82.3375 48.163 82.7412 46.6248 82.7412Z" fill="#282E36"/>
<path d="M69.3429 23.521C62.3453 19.6638 53.8647 17.8228 46.6245 17.8228C46.499 17.8228 46.3692 17.8271 46.2437 17.8292C46.5033 16.8696 47.082 15.5529 48.2266 14.2446C48.4521 13.9867 48.7138 13.7183 49.0096 13.4477C52.1648 13.6528 57.4901 11.2052 57.888 8.8C57.9199 8.60767 57.939 8.41111 57.9241 8.2082C57.8327 6.90202 56.8646 6.1369 55.3561 6.10097C53.7817 6.06293 52.4094 6.40321 51.1691 6.81325C48.0649 7.83833 45.9586 9.61161 44.6246 11.1334C42.4864 13.5746 41.546 16.2144 41.3375 18.1356C37.1951 18.6091 32.8804 19.6342 28.8167 21.232C28.7763 20.6656 28.755 20.0992 28.7614 19.5391C28.772 18.738 28.8358 17.9454 28.9529 17.1761C28.9741 17.0366 28.9997 16.8992 29.0252 16.7618C33.225 15.4134 38.2525 9.34953 37.2057 6.48353C36.7568 5.25132 35.5632 5.02728 34.3016 5.078C33.2421 5.12028 32.2123 5.56201 31.2443 6.07984L30.8847 6.28063L30.706 6.38208L30.6166 6.4328L30.5294 6.48987C30.2975 6.63993 30.0656 6.79211 29.8379 6.9464C29.6167 7.11337 29.3954 7.28246 29.1762 7.45366C28.9635 7.6312 28.7571 7.81931 28.5507 8.0053C27.7423 8.7683 27.0402 9.63909 26.4678 10.5648C25.8934 11.4906 25.4466 12.4713 25.1083 13.4647C24.4317 15.4535 24.1509 17.4762 24.1083 19.4566C24.0828 20.4479 24.1169 21.4328 24.2062 22.4114C24.2339 22.7136 24.2658 23.0159 24.3041 23.316C24.1743 23.3858 24.0403 23.4513 23.9105 23.5231C16.2342 27.7545 9.01953 35.4479 9.01953 47.3579C9.01953 47.7193 9.18761 48.0575 9.49824 48.2414V57.3065C9.49824 58.8916 10.3493 60.3585 11.7322 61.151L43.5162 79.3806C44.4778 79.9322 45.5522 80.2091 46.6267 80.2091C47.7011 80.2091 48.7755 79.9322 49.7372 79.3806L81.5212 61.151C82.9041 60.3585 83.7551 58.8916 83.7551 57.3065V48.2414C84.0679 48.0596 84.2338 47.7193 84.2338 47.3579C84.2338 35.4458 77.0192 27.7503 69.3429 23.521Z" fill="#282E36"/>
<mask id="mask0_2846_20869" style="mask-type:luminance" maskUnits="userSpaceOnUse" x="9" y="44" width="75" height="37">
<path d="M46.6242 65.5727L9.49365 44.2763V57.3022C9.49365 58.8874 10.3447 60.3542 11.7276 61.1468L43.5116 79.3764C45.437 80.4797 47.8093 80.4797 49.7347 79.3764L81.5187 61.1468C82.9016 60.3542 83.7527 58.8874 83.7527 57.3022V44.2763L46.6242 65.5727Z" fill="white"/>
</mask>
<g mask="url(#mask0_2846_20869)">
<path d="M46.624 65.5727V81.1624L83.7546 59.866V44.2763L46.624 65.5727Z" fill="white"/>
</g>
<mask id="mask1_2846_20869" style="mask-type:luminance" maskUnits="userSpaceOnUse" x="9" y="44" width="75" height="37">
<path d="M46.6242 65.5727L9.49365 44.2763V57.3022C9.49365 58.8874 10.3447 60.3542 11.7276 61.1468L43.5116 79.3764C45.437 80.4797 47.8093 80.4797 49.7347 79.3764L81.5187 61.1468C82.9016 60.3542 83.7527 58.8874 83.7527 57.3022V44.2763L46.6242 65.5727Z" fill="white"/>
</mask>
<g mask="url(#mask1_2846_20869)">
<path d="M9.49365 44.2763V59.866L46.6242 81.1624V65.5727L9.49365 44.2763Z" fill="white"/>
</g>
<path d="M69.3427 23.521C62.3451 19.6637 53.8646 17.8228 46.6244 17.8228C39.3842 17.8228 30.9037 19.6659 23.9061 23.521C16.2298 27.7524 9.01514 35.4458 9.01514 47.3557C9.01514 47.7193 9.18534 48.0617 9.50235 48.2434L44.1266 68.1026C44.8989 68.5464 45.7627 68.7683 46.6244 68.7683C47.4861 68.7683 48.3499 68.5464 49.1222 68.1026L83.7465 48.2434C84.0635 48.0617 84.2337 47.7193 84.2337 47.3557C84.2337 35.4458 77.0191 27.7503 69.3427 23.521Z" fill="white"/>
<path d="M80.9 50.0167C80.9 54.8906 74.2236 58.6253 68.3919 58.6253C62.5602 58.6253 53.6562 57.4755 53.6562 52.6016C53.6562 47.7277 63.1453 39.5947 68.977 39.5947C74.8087 39.5947 80.9 45.1429 80.9 50.0167Z" fill="white"/>
<path d="M67.398 60.0985C66.8129 61.84 62.3727 63.3153 58.9132 61.5315C55.6304 59.8364 48.788 51.7985 51.0412 48.8754C52.9283 46.4279 56.6261 45.0456 62.5642 46.8231C67.7533 48.3745 68.5703 56.6068 67.398 60.0985Z" fill="white"/>
<path d="M29.0252 16.7597C33.225 15.4112 38.2525 9.3474 37.2057 6.48139C36.7568 5.24918 35.5633 5.02514 34.3016 5.07587C33.2421 5.11814 32.2123 5.55988 31.2443 6.0777L30.8847 6.27849L30.706 6.37994L30.6166 6.43067L30.5294 6.48773C30.2975 6.6378 30.0656 6.78997 29.8379 6.94426C29.6167 7.11124 29.3954 7.28032 29.1762 7.45152C28.9635 7.62906 28.7571 7.81717 28.5507 8.00316C27.7423 8.76616 27.0402 9.63695 26.4678 10.5627C25.8934 11.4906 25.4466 12.4691 25.1083 13.4625C24.4317 15.4514 24.1509 17.4741 24.1083 19.4545C24.0828 20.4458 24.1169 21.4307 24.2062 22.4093C24.2934 23.3878 24.4317 24.3601 24.6232 25.3387C24.6275 25.364 24.636 25.4 24.6424 25.4253C24.9424 26.7019 26.2253 27.4945 27.5082 27.1965C28.7933 26.8985 29.5911 25.624 29.2911 24.3495L29.289 24.3432C29.106 23.5675 28.9741 22.7622 28.8826 21.957C28.7954 21.1496 28.755 20.3401 28.7635 19.539C28.7741 18.738 28.838 17.9454 28.955 17.1761C28.9741 17.0345 28.9997 16.8971 29.0252 16.7597Z" fill="white"/>
<path d="M57.924 8.20816C57.8325 6.90198 56.8644 6.13686 55.356 6.10093C53.7816 6.06289 52.4093 6.40317 51.1689 6.81321C48.0647 7.83829 45.9584 9.61157 44.6244 11.1333C42.165 13.9423 41.2905 17.0112 41.2905 18.9493C41.2905 20.2597 42.3586 21.3208 43.6777 21.3208C44.9968 21.3208 46.0648 20.2597 46.0648 18.9493C46.0648 18.1758 46.5159 16.1996 48.2286 14.2445C48.4541 13.9867 48.7158 13.7182 49.0115 13.4477C52.1667 13.6527 57.4921 11.2052 57.8899 8.79996C57.9197 8.60763 57.9389 8.41107 57.924 8.20816Z" fill="white"/>
<path d="M68.0791 41.1736C63.7176 41.1736 60.3347 37.8996 59.4624 32.8334C59.0135 30.2274 59.3624 27.7228 60.4432 25.7762C61.6645 23.5781 63.6984 22.1789 66.326 21.7329C66.8558 21.642 67.3834 21.5977 67.8962 21.5977C72.2577 21.5977 75.6406 24.8716 76.5129 29.9378C76.9618 32.5438 76.6129 35.0484 75.5321 36.995C74.3108 39.1931 72.2769 40.5923 69.6493 41.0383C69.1195 41.1271 68.5919 41.1736 68.0791 41.1736Z" fill="white"/>
<path d="M67.8964 23.1765C71.6856 23.1765 74.2515 26.1778 74.9429 30.202C75.7131 34.6722 73.8813 38.7134 69.3814 39.4785C68.9325 39.5546 68.4985 39.5905 68.0793 39.5905C64.2901 39.5905 61.7242 36.5892 61.0328 32.565C60.2626 28.0948 62.0944 24.0536 66.5943 23.2885C67.0411 23.2145 67.4772 23.1765 67.8964 23.1765ZM67.8964 20.0146C67.2943 20.0146 66.6751 20.0674 66.0581 20.1731C62.9817 20.6952 60.4924 22.4135 59.0499 25.0111C58.3988 26.182 57.9754 27.5009 57.7882 28.9296C57.6138 30.2654 57.6499 31.6688 57.8946 33.0997C58.352 35.7607 59.4584 38.0666 61.0902 39.7701C61.9923 40.7128 63.037 41.4462 64.1901 41.9535C65.4007 42.4861 66.7092 42.7545 68.0793 42.7545C68.6814 42.7545 69.3006 42.7017 69.9176 42.596C72.994 42.0739 75.4833 40.3556 76.9258 37.758C77.5769 36.5871 78.0003 35.2682 78.1875 33.8395C78.3619 32.5037 78.3258 31.1003 78.0811 29.6694C77.6237 27.0084 76.5173 24.7025 74.8855 22.999C73.9834 22.0563 72.9387 21.3229 71.7856 20.8156C70.5729 20.2851 69.2644 20.0146 67.8964 20.0146Z" fill="#282E36"/>
<path d="M4.14741 38.8613C4.05593 38.8613 3.96231 38.8528 3.8687 38.8359C3.00277 38.6838 2.4262 37.8637 2.57726 37.0056C3.02618 34.4778 4.39634 33.2519 5.46439 32.6706C6.84306 31.9203 8.58342 31.7195 10.6365 32.0746C11.6216 32.2458 12.445 32.51 12.8769 32.6622L41.2099 32.491C41.2141 32.491 41.2163 32.491 41.2205 32.491C42.095 32.491 42.8056 33.1927 42.812 34.0614C42.8162 34.9343 42.1099 35.6466 41.2312 35.6508L12.6046 35.8241C12.3918 35.8241 12.1812 35.7839 11.9854 35.7036C11.1152 35.3507 8.51321 34.6109 6.99412 35.4437C6.31967 35.8135 5.90267 36.5026 5.71544 37.553C5.57715 38.3223 4.90483 38.8613 4.14741 38.8613Z" fill="#282E36"/>
<path d="M49.2244 46.3244C44.3799 46.3244 40.6226 42.6764 39.6503 37.0289C39.1482 34.1185 39.5354 31.3201 40.7396 29.1516C42.0928 26.7125 44.3501 25.1633 47.2692 24.6666C47.8585 24.5673 48.4457 24.5165 49.0159 24.5165C53.8604 24.5165 57.6178 28.1646 58.5901 33.812C59.0922 36.7224 58.705 39.5208 57.5007 41.6893C56.1476 44.1284 53.8902 45.6776 50.9712 46.1743C50.3818 46.2736 49.7946 46.3244 49.2244 46.3244Z" fill="white"/>
<path d="M49.0183 26.0996C53.3224 26.0996 56.2351 29.5088 57.0223 34.0804C57.8967 39.1593 55.8159 43.7479 50.7033 44.6166C50.1948 44.7032 49.7012 44.7455 49.2247 44.7455C44.9206 44.7455 42.0079 41.3363 41.2207 36.7647C40.3463 31.6858 42.427 27.0972 47.5396 26.2285C48.0481 26.1397 48.5417 26.0996 49.0183 26.0996ZM49.0183 22.9377C48.3587 22.9377 47.68 22.9969 47.0013 23.111C45.2908 23.4027 43.7525 24.0177 42.4355 24.9435C41.159 25.8396 40.1207 26.9979 39.3484 28.3907C38.6357 29.6736 38.1697 31.1193 37.9655 32.6897C37.7719 34.1629 37.8123 35.7142 38.0846 37.2973C38.591 40.2351 39.8059 42.7778 41.6015 44.6504C42.5887 45.6797 43.727 46.4808 44.9844 47.0345C46.3056 47.6136 47.7332 47.9074 49.2268 47.9074C49.8863 47.9074 50.565 47.8482 51.2416 47.7341C52.9522 47.4424 54.4904 46.8274 55.8074 45.9016C57.084 45.0055 58.1222 43.8472 58.8945 42.4544C59.6073 41.1715 60.0732 39.7258 60.2775 38.1554C60.4711 36.6822 60.4306 35.1309 60.1583 33.5478C59.6519 30.6099 58.4371 28.0673 56.6435 26.1968C55.6564 25.1675 54.5181 24.3665 53.2607 23.8127C51.9395 23.2315 50.5119 22.9377 49.0183 22.9377Z" fill="#282E36"/>
<path d="M53.2941 40.4033C55.9233 39.9565 57.6277 37.1142 57.1009 34.0547C56.5741 30.9953 54.0157 28.8773 51.3865 29.324C48.7573 29.7708 47.053 32.6131 47.5798 35.6726C48.1066 38.732 50.665 40.85 53.2941 40.4033Z" fill="#282E36"/>
<path d="M71.2212 35.258C73.5064 35.0484 75.1559 32.6925 74.9053 29.9957C74.6548 27.299 72.5992 25.2827 70.314 25.4922C68.0288 25.7017 66.3794 28.0577 66.6299 30.7544C66.8804 33.4512 68.936 35.4675 71.2212 35.258Z" fill="#282E36"/>
<path d="M63.8089 48.4464C63.4515 48.4464 63.094 48.328 62.7962 48.0849L61.7622 47.2374C61.0856 46.6815 60.9899 45.686 61.5494 45.0118C62.109 44.3397 63.1111 44.2446 63.7898 44.8004L64.8238 45.648C65.5003 46.2039 65.5961 47.1993 65.0365 47.8736C64.7216 48.2498 64.2663 48.4464 63.8089 48.4464Z" fill="#282E36"/>
<path d="M48.5522 56.7696C48.2394 56.7696 47.9224 56.6787 47.6458 56.4863C46.9246 55.9875 46.7459 55.0026 47.248 54.2861L49.7458 50.7163C50.2479 49.9998 51.2393 49.8222 51.9606 50.321C52.6818 50.8199 52.8605 51.8048 52.3584 52.5213L49.8606 56.0911C49.55 56.5328 49.0543 56.7696 48.5522 56.7696Z" fill="#282E36"/>
<path d="M67.4683 60.8298C66.5301 60.8298 65.5769 60.7748 64.6152 60.6649C57.0538 59.7941 51.5349 56.4166 49.1094 53.7852C48.5158 53.1427 48.5584 52.1409 49.2073 51.5512C49.8541 50.9615 50.8604 51.0038 51.4561 51.6484C53.6752 54.0537 58.7197 56.8034 64.9833 57.5241C67.8789 57.8581 70.781 57.596 73.1575 56.7865C75.5936 55.958 77.4126 54.5926 78.4169 52.8384C79.5636 50.8368 79.4168 49.0677 79.0913 47.937C78.7126 46.6202 77.8637 45.4218 76.8744 44.8068C76.1297 44.3439 75.9021 43.3696 76.368 42.6277C76.8339 41.8879 77.8148 41.6618 78.5615 42.1247C80.2168 43.1519 81.5572 44.9991 82.1529 47.0683C82.6444 48.7824 82.8763 51.4455 81.1827 54.4024C79.787 56.8372 77.3701 58.6951 74.1894 59.7772C72.1362 60.4747 69.8533 60.8298 67.4683 60.8298Z" fill="#282E36"/>
</svg>
