<svg width="264" height="37" viewBox="0 0 264 37" fill="none" xmlns="http://www.w3.org/2000/svg">
<path d="M29.8602 31.05C29.8602 32.0833 29.6768 32.85 29.3102 33.35C28.9435 33.85 28.3602 34.3333 27.5602 34.8C27.0935 35.0667 26.5102 35.3333 25.8102 35.6C25.1102 35.8333 24.3435 36.0333 23.5102 36.2C22.6768 36.4 21.7935 36.55 20.8602 36.65C19.9602 36.75 19.0602 36.8 18.1602 36.8C15.7602 36.8 13.5102 36.4833 11.4102 35.85C9.31016 35.1833 7.47682 34.2 5.91016 32.9C4.37682 31.5667 3.16016 29.9167 2.26016 27.95C1.36016 25.9833 0.910156 23.7 0.910156 21.1C0.910156 18.3667 1.39349 15.9833 2.36016 13.95C3.36016 11.9167 4.66016 10.2333 6.26016 8.9C7.89349 7.53333 9.74349 6.51667 11.8102 5.85C13.9102 5.18333 16.0602 4.85 18.2602 4.85C21.4268 4.85 23.9268 5.36667 25.7602 6.4C27.6268 7.4 28.5602 8.71667 28.5602 10.35C28.5602 11.2167 28.3435 11.9667 27.9102 12.6C27.4768 13.2333 26.9768 13.7333 26.4102 14.1C25.5768 13.6 24.5268 13.1167 23.2602 12.65C22.0268 12.15 20.6268 11.9 19.0602 11.9C16.2602 11.9 14.0268 12.7 12.3602 14.3C10.7268 15.9 9.91016 18.1167 9.91016 20.95C9.91016 22.4833 10.1268 23.8167 10.5602 24.95C11.0268 26.05 11.6435 26.9667 12.4102 27.7C13.1768 28.4 14.0602 28.9333 15.0602 29.3C16.0602 29.6333 17.1268 29.8 18.2602 29.8C18.9935 29.8 19.6435 29.7333 20.2102 29.6C20.7768 29.4667 21.2102 29.3167 21.5102 29.15V24.45H16.1602C15.9602 24.0833 15.7602 23.6 15.5602 23C15.3935 22.4 15.3102 21.7667 15.3102 21.1C15.3102 19.9 15.5768 19.0333 16.1102 18.5C16.6768 17.9667 17.3935 17.7 18.2602 17.7H26.7102C27.7102 17.7 28.4768 17.9833 29.0102 18.55C29.5768 19.0833 29.8602 19.85 29.8602 20.85V31.05ZM45.4633 35.95C45.1299 36.05 44.5966 36.15 43.8633 36.25C43.1633 36.35 42.4299 36.4 41.6633 36.4C40.9299 36.4 40.2633 36.35 39.6633 36.25C39.0966 36.15 38.6133 35.95 38.2133 35.65C37.8133 35.35 37.4966 34.95 37.2633 34.45C37.0633 33.9167 36.9633 33.2333 36.9633 32.4V17.4C36.9633 16.6333 37.0966 15.9833 37.3633 15.45C37.6633 14.8833 38.0799 14.3833 38.6133 13.95C39.1466 13.5167 39.7966 13.1333 40.5633 12.8C41.3633 12.4333 42.2133 12.1167 43.1133 11.85C44.0133 11.5833 44.9466 11.3833 45.9133 11.25C46.8799 11.0833 47.8466 11 48.8133 11C50.4133 11 51.6799 11.3167 52.6133 11.95C53.5466 12.55 54.0133 13.55 54.0133 14.95C54.0133 15.4167 53.9466 15.8833 53.8133 16.35C53.6799 16.7833 53.5133 17.1833 53.3133 17.55C52.6133 17.55 51.8966 17.5833 51.1633 17.65C50.4299 17.7167 49.7133 17.8167 49.0133 17.95C48.3133 18.0833 47.6466 18.2333 47.0133 18.4C46.4133 18.5333 45.8966 18.7 45.4633 18.9V35.95ZM59.3199 4.95C59.3199 3.68333 59.7366 2.61666 60.5699 1.75C61.4366 0.883331 62.5699 0.449999 63.9699 0.449999C65.3699 0.449999 66.4866 0.883331 67.3199 1.75C68.1866 2.61666 68.6199 3.68333 68.6199 4.95C68.6199 6.21667 68.1866 7.28333 67.3199 8.15C66.4866 9.01667 65.3699 9.45 63.9699 9.45C62.5699 9.45 61.4366 9.01667 60.5699 8.15C59.7366 7.28333 59.3199 6.21667 59.3199 4.95ZM68.2199 35.95C67.8533 36.0167 67.3033 36.1 66.5699 36.2C65.8699 36.3333 65.1533 36.4 64.4199 36.4C63.6866 36.4 63.0199 36.35 62.4199 36.25C61.8533 36.15 61.3699 35.95 60.9699 35.65C60.5699 35.35 60.2533 34.95 60.0199 34.45C59.8199 33.9167 59.7199 33.2333 59.7199 32.4V12.05C60.0866 11.9833 60.6199 11.9 61.3199 11.8C62.0533 11.6667 62.7866 11.6 63.5199 11.6C64.2533 11.6 64.9033 11.65 65.4699 11.75C66.0699 11.85 66.5699 12.05 66.9699 12.35C67.3699 12.65 67.6699 13.0667 67.8699 13.6C68.1033 14.1 68.2199 14.7667 68.2199 15.6V35.95ZM74.5813 23.85C74.5813 21.65 74.9146 19.75 75.5813 18.15C76.2479 16.5167 77.1646 15.1667 78.3313 14.1C79.5313 13.0333 80.9146 12.25 82.4813 11.75C84.0813 11.2167 85.7979 10.95 87.6313 10.95C88.2979 10.95 88.9479 11.0167 89.5813 11.15C90.2146 11.25 90.7313 11.3833 91.1313 11.55V3.45C91.4646 3.35 91.9979 3.25 92.7313 3.15C93.4646 3.01667 94.2146 2.95 94.9813 2.95C95.7146 2.95 96.3646 3 96.9313 3.1C97.5313 3.2 98.0313 3.4 98.4313 3.7C98.8313 4 99.1313 4.41666 99.3313 4.95C99.5313 5.45 99.6313 6.11667 99.6313 6.95V30.65C99.6313 32.2167 98.8979 33.4667 97.4313 34.4C96.4646 35.0333 95.2146 35.5833 93.6813 36.05C92.1479 36.55 90.3813 36.8 88.3813 36.8C86.2146 36.8 84.2646 36.5 82.5313 35.9C80.8313 35.3 79.3813 34.4333 78.1813 33.3C77.0146 32.1667 76.1146 30.8167 75.4813 29.25C74.8813 27.65 74.5813 25.85 74.5813 23.85ZM88.7813 17.6C86.9813 17.6 85.5979 18.1167 84.6313 19.15C83.6646 20.1833 83.1813 21.75 83.1813 23.85C83.1813 25.9167 83.6313 27.4833 84.5313 28.55C85.4313 29.5833 86.7313 30.1 88.4313 30.1C89.0313 30.1 89.5646 30.0167 90.0313 29.85C90.5313 29.65 90.9146 29.4333 91.1813 29.2V18.2C90.5146 17.8 89.7146 17.6 88.7813 17.6ZM128.338 35.8C127.971 35.9 127.388 36 126.588 36.1C125.821 36.2 125.055 36.25 124.288 36.25C123.521 36.25 122.838 36.1833 122.238 36.05C121.671 35.95 121.188 35.75 120.788 35.45C120.388 35.15 120.088 34.7333 119.888 34.2C119.688 33.6667 119.588 32.9667 119.588 32.1V5.7C119.955 5.63333 120.538 5.55 121.338 5.45C122.138 5.31667 122.905 5.25 123.638 5.25C124.405 5.25 125.071 5.31667 125.638 5.45C126.238 5.55 126.738 5.75 127.138 6.05C127.538 6.35 127.838 6.76667 128.038 7.3C128.238 7.83333 128.338 8.53333 128.338 9.4V35.8ZM156.672 28.75C156.672 31.2833 155.722 33.2667 153.822 34.7C151.922 36.1333 149.122 36.85 145.422 36.85C144.022 36.85 142.722 36.75 141.522 36.55C140.322 36.35 139.289 36.05 138.422 35.65C137.589 35.2167 136.922 34.6833 136.422 34.05C135.956 33.4167 135.722 32.6667 135.722 31.8C135.722 31 135.889 30.3333 136.222 29.8C136.556 29.2333 136.956 28.7667 137.422 28.4C138.389 28.9333 139.489 29.4167 140.722 29.85C141.989 30.25 143.439 30.45 145.072 30.45C146.106 30.45 146.889 30.3 147.422 30C147.989 29.7 148.272 29.3 148.272 28.8C148.272 28.3333 148.072 27.9667 147.672 27.7C147.272 27.4333 146.606 27.2167 145.672 27.05L144.172 26.75C141.272 26.1833 139.106 25.3 137.672 24.1C136.272 22.8667 135.572 21.1167 135.572 18.85C135.572 17.6167 135.839 16.5 136.372 15.5C136.906 14.5 137.656 13.6667 138.622 13C139.589 12.3333 140.739 11.8167 142.072 11.45C143.439 11.0833 144.939 10.9 146.572 10.9C147.806 10.9 148.956 11 150.022 11.2C151.122 11.3667 152.072 11.6333 152.872 12C153.672 12.3667 154.306 12.85 154.772 13.45C155.239 14.0167 155.472 14.7 155.472 15.5C155.472 16.2667 155.322 16.9333 155.022 17.5C154.756 18.0333 154.406 18.4833 153.972 18.85C153.706 18.6833 153.306 18.5167 152.772 18.35C152.239 18.15 151.656 17.9833 151.022 17.85C150.389 17.6833 149.739 17.55 149.072 17.45C148.439 17.35 147.856 17.3 147.322 17.3C146.222 17.3 145.372 17.4333 144.772 17.7C144.172 17.9333 143.872 18.3167 143.872 18.85C143.872 19.2167 144.039 19.5167 144.372 19.75C144.706 19.9833 145.339 20.2 146.272 20.4L147.822 20.75C151.022 21.4833 153.289 22.5 154.622 23.8C155.989 25.0667 156.672 26.7167 156.672 28.75ZM171.432 35.95C171.065 36.0167 170.515 36.1 169.782 36.2C169.082 36.3333 168.365 36.4 167.632 36.4C166.898 36.4 166.232 36.35 165.632 36.25C165.065 36.15 164.582 35.95 164.182 35.65C163.782 35.35 163.465 34.95 163.232 34.45C163.032 33.9167 162.932 33.2333 162.932 32.4V3.4C163.298 3.33333 163.832 3.25 164.532 3.15C165.265 3.01667 165.998 2.95 166.732 2.95C167.465 2.95 168.115 3 168.682 3.1C169.282 3.2 169.782 3.4 170.182 3.7C170.582 4 170.882 4.41666 171.082 4.95C171.315 5.45 171.432 6.11667 171.432 6.95V35.95ZM189.195 30.6C189.762 30.6 190.379 30.55 191.045 30.45C191.745 30.3167 192.262 30.15 192.595 29.95V25.95L188.995 26.25C188.062 26.3167 187.295 26.5167 186.695 26.85C186.095 27.1833 185.795 27.6833 185.795 28.35C185.795 29.0167 186.045 29.5667 186.545 30C187.079 30.4 187.962 30.6 189.195 30.6ZM188.795 10.95C190.595 10.95 192.229 11.1333 193.695 11.5C195.195 11.8667 196.462 12.4333 197.495 13.2C198.562 13.9333 199.379 14.8833 199.945 16.05C200.512 17.1833 200.795 18.5333 200.795 20.1V31.3C200.795 32.1667 200.545 32.8833 200.045 33.45C199.579 33.9833 199.012 34.45 198.345 34.85C196.179 36.15 193.129 36.8 189.195 36.8C187.429 36.8 185.829 36.6333 184.395 36.3C182.995 35.9667 181.779 35.4667 180.745 34.8C179.745 34.1333 178.962 33.2833 178.395 32.25C177.862 31.2167 177.595 30.0167 177.595 28.65C177.595 26.35 178.279 24.5833 179.645 23.35C181.012 22.1167 183.129 21.35 185.995 21.05L192.545 20.35V20C192.545 19.0333 192.112 18.35 191.245 17.95C190.412 17.5167 189.195 17.3 187.595 17.3C186.329 17.3 185.095 17.4333 183.895 17.7C182.695 17.9667 181.612 18.3 180.645 18.7C180.212 18.4 179.845 17.95 179.545 17.35C179.245 16.7167 179.095 16.0667 179.095 15.4C179.095 14.5333 179.295 13.85 179.695 13.35C180.129 12.8167 180.779 12.3667 181.645 12C182.612 11.6333 183.745 11.3667 185.045 11.2C186.379 11.0333 187.629 10.95 188.795 10.95ZM223.393 20.6C223.393 19.5667 223.093 18.8167 222.493 18.35C221.926 17.85 221.143 17.6 220.143 17.6C219.476 17.6 218.809 17.6833 218.143 17.85C217.509 18.0167 216.959 18.2667 216.493 18.6V35.95C216.159 36.05 215.626 36.15 214.893 36.25C214.193 36.35 213.459 36.4 212.693 36.4C211.959 36.4 211.293 36.35 210.693 36.25C210.126 36.15 209.643 35.95 209.243 35.65C208.843 35.35 208.526 34.95 208.293 34.45C208.093 33.9167 207.993 33.2333 207.993 32.4V17.4C207.993 16.5 208.176 15.7667 208.543 15.2C208.943 14.6333 209.476 14.1167 210.143 13.65C211.276 12.85 212.693 12.2 214.393 11.7C216.126 11.2 218.043 10.95 220.143 10.95C223.909 10.95 226.809 11.7833 228.843 13.45C230.876 15.0833 231.893 17.3667 231.893 20.3V35.95C231.559 36.05 231.026 36.15 230.293 36.25C229.593 36.35 228.859 36.4 228.093 36.4C227.359 36.4 226.693 36.35 226.093 36.25C225.526 36.15 225.043 35.95 224.643 35.65C224.243 35.35 223.926 34.95 223.693 34.45C223.493 33.9167 223.393 33.2333 223.393 32.4V20.6ZM238.093 23.85C238.093 21.65 238.426 19.75 239.093 18.15C239.76 16.5167 240.676 15.1667 241.843 14.1C243.043 13.0333 244.426 12.25 245.993 11.75C247.593 11.2167 249.31 10.95 251.143 10.95C251.81 10.95 252.46 11.0167 253.093 11.15C253.726 11.25 254.243 11.3833 254.643 11.55V3.45C254.976 3.35 255.51 3.25 256.243 3.15C256.976 3.01667 257.726 2.95 258.493 2.95C259.226 2.95 259.876 3 260.443 3.1C261.043 3.2 261.543 3.4 261.943 3.7C262.343 4 262.643 4.41666 262.843 4.95C263.043 5.45 263.143 6.11667 263.143 6.95V30.65C263.143 32.2167 262.41 33.4667 260.943 34.4C259.976 35.0333 258.726 35.5833 257.193 36.05C255.66 36.55 253.893 36.8 251.893 36.8C249.726 36.8 247.776 36.5 246.043 35.9C244.343 35.3 242.893 34.4333 241.693 33.3C240.526 32.1667 239.626 30.8167 238.993 29.25C238.393 27.65 238.093 25.85 238.093 23.85ZM252.293 17.6C250.493 17.6 249.11 18.1167 248.143 19.15C247.176 20.1833 246.693 21.75 246.693 23.85C246.693 25.9167 247.143 27.4833 248.043 28.55C248.943 29.5833 250.243 30.1 251.943 30.1C252.543 30.1 253.076 30.0167 253.543 29.85C254.043 29.65 254.426 29.4333 254.693 29.2V18.2C254.026 17.8 253.226 17.6 252.293 17.6Z" fill="#242529"/>
</svg>
